<?xml version="1.0" standalone="no"?>
<!DOCTYPE svg PUBLIC "-//W3C//DTD SVG 20010904//EN"
 "http://www.w3.org/TR/2001/REC-SVG-20010904/DTD/svg10.dtd">
<svg version="1.0" xmlns="http://www.w3.org/2000/svg"
 width="260.000000pt" height="260.000000pt" viewBox="0 0 260.000000 260.000000"
 preserveAspectRatio="xMidYMid meet">
<metadata>
Created by potrace 1.11, written by Peter Selinger 2001-2013
</metadata>
<g transform="translate(0.000000,260.000000) scale(0.100000,-0.100000)"
fill="#000000" stroke="none">
<path d="M270 2320 l0 -220 220 0 220 0 0 220 0 220 -220 0 -220 0 0 -220z"/>
<path d="M730 2320 l0 -220 220 0 220 0 0 220 0 220 -220 0 -220 0 0 -220z"/>
<path d="M1190 2320 l0 -220 220 0 220 0 0 220 0 220 -220 0 -220 0 0 -220z"/>
<path d="M1650 2320 l0 -220 220 0 220 0 0 220 0 220 -220 0 -220 0 0 -220z"/>
<path d="M270 1860 l0 -220 220 0 220 0 0 220 0 220 -220 0 -220 0 0 -220z"/>
<path d="M270 1400 l0 -220 225 0 225 0 0 220 0 220 -225 0 -225 0 0 -220z"/>
<path d="M740 1400 l0 -220 220 0 220 0 0 220 0 220 -220 0 -220 0 0 -220z"/>
<path d="M1200 1400 l0 -220 220 0 220 0 0 220 0 220 -220 0 -220 0 0 -220z"/>
<path d="M1660 1400 l0 -220 220 0 220 0 0 220 0 220 -220 0 -220 0 0 -220z"/>
<path d="M1660 940 l0 -220 220 0 220 0 0 220 0 220 -220 0 -220 0 0 -220z"/>
<path d="M270 480 l0 -220 225 0 225 0 0 220 0 220 -225 0 -225 0 0 -220z"/>
<path d="M740 480 l0 -220 220 0 220 0 0 220 0 220 -220 0 -220 0 0 -220z"/>
<path d="M1200 480 l0 -220 220 0 220 0 0 220 0 220 -220 0 -220 0 0 -220z"/>
<path d="M1660 480 l0 -220 220 0 220 0 0 220 0 220 -220 0 -220 0 0 -220z"/>
</g>
</svg>
